<svg width="194" height="194" viewBox="0 0 194 194" fill="none" xmlns="http://www.w3.org/2000/svg">
<g opacity="0.5">
<path d="M169.75 30.3125H24.25C22.6421 30.3125 21.1001 30.9512 19.9632 32.0882C18.8262 33.2251 18.1875 34.7671 18.1875 36.375V133.375C18.1875 134.983 18.8262 136.525 19.9632 137.662C21.1001 138.799 22.6421 139.438 24.25 139.438H66.6875V163.688C66.6852 164.801 66.9894 165.893 67.5669 166.845C68.1444 167.797 68.9728 168.571 69.9613 169.083C70.8295 169.511 71.7823 169.739 72.75 169.75C74.0135 169.742 75.2428 169.339 76.2663 168.598L117.127 139.438H169.75C171.358 139.438 172.9 138.799 174.037 137.662C175.174 136.525 175.812 134.983 175.812 133.375V36.375C175.812 34.7671 175.174 33.2251 174.037 32.0882C172.9 30.9512 171.358 30.3125 169.75 30.3125ZM163.688 127.312H115.188C113.92 127.295 112.683 127.7 111.671 128.464L78.8125 151.926V133.375C78.8125 131.767 78.1738 130.225 77.0368 129.088C75.8999 127.951 74.3579 127.312 72.75 127.312H30.3125V42.4375H163.688V127.312Z" fill="black"/>
<path d="M48.5 72.75H145.5C147.108 72.75 148.65 72.1113 149.787 70.9743C150.924 69.8374 151.562 68.2954 151.562 66.6875C151.562 65.0796 150.924 63.5376 149.787 62.4007C148.65 61.2637 147.108 60.625 145.5 60.625H48.5C46.8921 60.625 45.3501 61.2637 44.2132 62.4007C43.0762 63.5376 42.4375 65.0796 42.4375 66.6875C42.4375 68.2954 43.0762 69.8374 44.2132 70.9743C45.3501 72.1113 46.8921 72.75 48.5 72.75ZM48.5 109.125H145.5C147.108 109.125 148.65 108.486 149.787 107.349C150.924 106.212 151.562 104.67 151.562 103.062C151.562 101.455 150.924 99.9126 149.787 98.7757C148.65 97.6387 147.108 97 145.5 97H48.5C46.8921 97 45.3501 97.6387 44.2132 98.7757C43.0762 99.9126 42.4375 101.455 42.4375 103.062C42.4375 104.67 43.0762 106.212 44.2132 107.349C45.3501 108.486 46.8921 109.125 48.5 109.125Z" fill="black"/>
</g>
</svg>
