<?xml version="1.0" encoding="utf-8"?>
<!-- Generator: Adobe Illustrator 27.0.1, SVG Export Plug-In . SVG Version: 6.00 Build 0)  -->
<svg version="1.1" id="Layer_1" xmlns="http://www.w3.org/2000/svg" xmlns:xlink="http://www.w3.org/1999/xlink" x="0px" y="0px"
	 viewBox="0 0 155.2 152.9" style="enable-background:new 0 0 155.2 152.9;" xml:space="preserve">
<style type="text/css">
	.st0{display:none;fill:#FFFFFF;}
	.st1{fill:#1E2FD3;enable-background:new    ;}
	.st2{fill:#507FD6;enable-background:new    ;}
</style>
<g id="_x36_6b6bb8c-e77f-4b71-b7c3-31b33c253366" transform="matrix(1 0 0 1 540 540)">
	<rect x="-825.8" y="-968.8" vector-effect="non-scaling-stroke" class="st0" width="1080" height="1080"/>
</g>
<g id="cfab93bd-60b9-4822-b6a7-b3c6caff4600" transform="matrix(1 0 0 1 540 540)">
</g>
<g transform="matrix(NaN NaN NaN NaN 0 0)">
</g>
<g>
	<path class="st1" d="M16.1,43.8c31.5-47.4,86-43.8,86-43.8v32.5c0,0-24.3,0-45.6,17.9c-3.7,3.1-10.5,10.4-12.9,14.6
		c-6.7,11.4-8.5,22.8-8.5,22.8h36.1l-14.6,32.3H0.1C0.1,120.2-2.1,68.5,16.1,43.8"/>
	<path class="st2" d="M88,65.1l13.6-32.5h53.6c0,0,0.1,25.1-0.7,33.2c-0.6,5.8-2,16.9-4.2,22.1c-3.7,8.9-14.3,25.4-21.1,32.3
		c-6.1,6.2-16.9,16.6-28.2,21.9c-18.5,8.7-45,10.7-45,10.7v-32.7c0,0,20.1-2.5,32-9c7.6-4.2,20.7-16.3,25.9-23.3
		c6.3-8.3,8.9-22.8,8.9-22.8H88z"/>
</g>
</svg>
